solid object
  facet normal -0.0171 0.9983 -0.0565
    outer loop
      vertex -3.415921 -14.05742 -127.863228
      vertex 2.933123 -13.949812 -127.887024
      vertex 2.930834 -13.996316 -128.707474
    endloop
  endfacet
  facet normal -0.0171 0.9983 -0.0565
    outer loop
      vertex -3.415921 -14.05742 -127.863228
      vertex 2.930834 -13.996316 -128.707474
      vertex -3.418209 -14.103924 -128.683655
    endloop
  endfacet
  facet normal -0.0162 0.8362 -0.5482
    outer loop
      vertex -3.418209 -14.103924 -128.683655
      vertex 2.930834 -13.996316 -128.707474
      vertex 2.935891 -14.446747 -129.394745
    endloop
  endfacet
  facet normal -0.0162 0.8362 -0.5482
    outer loop
      vertex -3.418209 -14.103924 -128.683655
      vertex 2.935891 -14.446747 -129.394745
      vertex -3.413152 -14.554356 -129.370941
    endloop
  endfacet
  facet normal -0.011 0.4501 -0.8929
    outer loop
      vertex -3.413152 -14.554356 -129.370941
      vertex 2.935891 -14.446747 -129.394745
      vertex 2.946938 -15.180412 -129.764725
    endloop
  endfacet
  facet normal -0.011 0.4501 -0.8929
    outer loop
      vertex -3.413152 -14.554356 -129.370941
      vertex 2.946938 -15.180412 -129.764725
      vertex -3.402105 -15.28802 -129.740921
    endloop
  endfacet
  facet normal -0.0158 0.9789 0.2038
    outer loop
      vertex 2.933123 -13.949812 -127.887024
      vertex -3.415921 -14.05742 -127.863228
      vertex 3.188898 -21.263691 -92.73645
    endloop
  endfacet
  facet normal -0.0158 0.9789 0.2038
    outer loop
      vertex 3.188898 -21.263691 -92.73645
      vertex -3.415921 -14.05742 -127.863228
      vertex -3.160146 -21.371298 -92.712646
    endloop
  endfacet
  facet normal -0.0172 0.9427 -0.3333
    outer loop
      vertex -3.133013 -19.388687 -76.516655
      vertex 3.21603 -19.281078 -76.540466
      vertex 3.227706 -21.122791 -81.750694
    endloop
  endfacet
  facet normal -0.0172 0.9427 -0.3333
    outer loop
      vertex -3.133013 -19.388687 -76.516655
      vertex 3.227706 -21.122791 -81.750694
      vertex -3.121337 -21.2304 -81.726875
    endloop
  endfacet
  facet normal -0.0173 0.9924 -0.1215
    outer loop
      vertex -3.121337 -21.2304 -81.726875
      vertex 3.227706 -21.122791 -81.750694
      vertex 3.218517 -21.794256 -87.235901
    endloop
  endfacet
  facet normal -0.0173 0.9924 -0.1215
    outer loop
      vertex -3.121337 -21.2304 -81.726875
      vertex 3.218517 -21.794256 -87.235901
      vertex -3.130526 -21.901865 -87.21209
    endloop
  endfacet
  facet normal -0.0165 0.9952 0.0961
    outer loop
      vertex -3.130526 -21.901865 -87.21209
      vertex 3.218517 -21.794256 -87.235901
      vertex 3.188898 -21.263691 -92.73645
    endloop
  endfacet
  facet normal -0.0165 0.9952 0.0961
    outer loop
      vertex -3.130526 -21.901865 -87.21209
      vertex 3.188898 -21.263691 -92.73645
      vertex -3.160146 -21.371298 -92.712646
    endloop
  endfacet
  facet normal -0.0169 0.9008 -0.4338
    outer loop
      vertex 3.21603 -19.281078 -76.540466
      vertex -3.133013 -19.388687 -76.516655
      vertex 3.102543 -6.892787 -50.813023
    endloop
  endfacet
  facet normal -0.0169 0.9008 -0.4338
    outer loop
      vertex 3.102543 -6.892787 -50.813023
      vertex -3.133013 -19.388687 -76.516655
      vertex -3.2465 -7.000394 -50.789215
    endloop
  endfacet
  facet normal -0.0037 -0.0002 -1.0
    outer loop
      vertex -18.056721 -26.2607 -50.729397
      vertex -24.475018 -20.466881 -50.706657
      vertex -29.092167 -13.156268 -50.69101
    endloop
  endfacet
  facet normal -0.0037 -0.0002 -1.0
    outer loop
      vertex -18.056721 -26.2607 -50.729397
      vertex -29.092167 -13.156268 -50.69101
      vertex -3.103185 -15.455913 -50.787846
    endloop
  endfacet
  facet normal -0.0037 -0.0002 -1.0
    outer loop
      vertex -3.103185 -15.455913 -50.787846
      vertex -29.092167 -13.156268 -50.69101
      vertex -31.565733 -4.871052 -50.683605
    endloop
  endfacet
  facet normal -0.0037 -0.0002 -1.0
    outer loop
      vertex -3.103185 -15.455913 -50.787846
      vertex -31.565733 -4.871052 -50.683605
      vertex -3.2465 -7.000394 -50.789215
    endloop
  endfacet
  facet normal -0.0037 -0.0002 -1.0
    outer loop
      vertex -3.2465 -7.000394 -50.789215
      vertex -31.565733 -4.871052 -50.683605
      vertex -31.934675 -0.553393 -50.683197
    endloop
  endfacet
  facet normal -0.0037 -0.0002 -1.0
    outer loop
      vertex -3.2465 -7.000394 -50.789215
      vertex -31.934675 -0.553393 -50.683197
      vertex -31.712263 3.774288 -50.685005
    endloop
  endfacet
  facet normal -0.0037 -0.0002 -1.0
    outer loop
      vertex -11.32728 29.716955 -50.767208
      vertex -3.624774 15.317597 -50.79282
      vertex -18.935881 25.609438 -50.737778
    endloop
  endfacet
  facet normal -0.0037 -0.0002 -1.0
    outer loop
      vertex -18.935881 25.609438 -50.737778
      vertex -3.624774 15.317597 -50.79282
      vertex -3.48146 6.862079 -50.791458
    endloop
  endfacet
  facet normal -0.0037 -0.0002 -1.0
    outer loop
      vertex -18.935881 25.609438 -50.737778
      vertex -3.48146 6.862079 -50.791458
      vertex -25.154148 19.601448 -50.713135
    endloop
  endfacet
  facet normal -0.0037 -0.0002 -1.0
    outer loop
      vertex -10.31329 -30.108019 -50.757542
      vertex -18.056721 -26.2607 -50.729397
      vertex -1.81902 -31.723507 -50.788998
    endloop
  endfacet
  facet normal -0.0037 -0.0002 -1.0
    outer loop
      vertex -1.81902 -31.723507 -50.788998
      vertex -18.056721 -26.2607 -50.729397
      vertex -3.103185 -15.455913 -50.787846
    endloop
  endfacet
  facet normal -0.0037 -0.0002 -1.0
    outer loop
      vertex -1.81902 -31.723507 -50.788998
      vertex -3.103185 -15.455913 -50.787846
      vertex 6.796106 -30.987341 -50.821438
    endloop
  endfacet
  facet normal -0.0037 -0.0002 -1.0
    outer loop
      vertex 6.796106 -30.987341 -50.821438
      vertex -3.103185 -15.455913 -50.787846
      vertex 3.245858 -15.348305 -50.811661
    endloop
  endfacet
  facet normal -0.0037 -0.0002 -1.0
    outer loop
      vertex 31.555761 0.522686 -50.921284
      vertex 30.523729 -8.062083 -50.915485
      vertex 3.102543 -6.892787 -50.813023
    endloop
  endfacet
  facet normal -0.0037 -0.0002 -1.0
    outer loop
      vertex 2.867584 6.969687 -50.815266
      vertex 3.102543 -6.892787 -50.813023
      vertex -3.48146 6.862079 -50.791458
    endloop
  endfacet
  facet normal -0.0037 -0.0002 -1.0
    outer loop
      vertex -3.48146 6.862079 -50.791458
      vertex 3.102543 -6.892787 -50.813023
      vertex -3.2465 -7.000394 -50.789215
    endloop
  endfacet
  facet normal -0.0037 -0.0002 -1.0
    outer loop
      vertex -3.48146 6.862079 -50.791458
      vertex -3.2465 -7.000394 -50.789215
      vertex -25.154148 19.601448 -50.713135
    endloop
  endfacet
  facet normal -0.0037 -0.0002 -1.0
    outer loop
      vertex -25.154148 19.601448 -50.713135
      vertex -3.2465 -7.000394 -50.789215
      vertex -31.712263 3.774288 -50.685005
    endloop
  endfacet
  facet normal -0.0037 -0.0002 -1.0
    outer loop
      vertex -25.154148 19.601448 -50.713135
      vertex -31.712263 3.774288 -50.685005
      vertex -29.520895 12.138568 -50.695095
    endloop
  endfacet
  facet normal -0.0037 -0.0002 -1.0
    outer loop
      vertex -11.32728 29.716955 -50.767208
      vertex -2.892637 31.619362 -50.799236
      vertex -3.624774 15.317597 -50.79282
    endloop
  endfacet
  facet normal -0.0037 -0.0002 -1.0
    outer loop
      vertex -3.624774 15.317597 -50.79282
      vertex -2.892637 31.619362 -50.799236
      vertex 5.742488 31.17557 -50.831486
    endloop
  endfacet
  facet normal -0.0037 -0.0002 -1.0
    outer loop
      vertex -3.624774 15.317597 -50.79282
      vertex 5.742488 31.17557 -50.831486
      vertex 2.724269 15.425205 -50.816631
    endloop
  endfacet
  facet normal -0.0037 -0.0002 -1.0
    outer loop
      vertex 5.742488 31.17557 -50.831486
      vertex 13.937669 28.418488 -50.861565
      vertex 2.724269 15.425205 -50.816631
    endloop
  endfacet
  facet normal -0.0037 -0.0002 -1.0
    outer loop
      vertex 2.724269 15.425205 -50.816631
      vertex 13.937669 28.418488 -50.861565
      vertex 21.085104 23.552597 -50.887245
    endloop
  endfacet
  facet normal -0.0037 -0.0002 -1.0
    outer loop
      vertex 2.724269 15.425205 -50.816631
      vertex 21.085104 23.552597 -50.887245
      vertex 2.867584 6.969687 -50.815266
    endloop
  endfacet
  facet normal -0.0037 -0.0002 -1.0
    outer loop
      vertex 2.867584 6.969687 -50.815266
      vertex 21.085104 23.552597 -50.887245
      vertex 26.654703 16.93878 -50.90662
    endloop
  endfacet
  facet normal -0.0037 -0.0002 -1.0
    outer loop
      vertex 2.867584 6.969687 -50.815266
      vertex 26.654703 16.93878 -50.90662
      vertex 3.102543 -6.892787 -50.813023
    endloop
  endfacet
  facet normal -0.0037 -0.0002 -1.0
    outer loop
      vertex 3.102543 -6.892787 -50.813023
      vertex 26.654703 16.93878 -50.90662
      vertex 30.233393 9.067552 -50.918255
    endloop
  endfacet
  facet normal -0.0037 -0.0002 -1.0
    outer loop
      vertex 3.102543 -6.892787 -50.813023
      vertex 30.233393 9.067552 -50.918255
      vertex 31.555761 0.522686 -50.921284
    endloop
  endfacet
  facet normal -0.0037 -0.0002 -1.0
    outer loop
      vertex 30.523729 -8.062083 -50.915485
      vertex 27.21384 -16.050062 -50.901291
      vertex 3.102543 -6.892787 -50.813023
    endloop
  endfacet
  facet normal -0.0037 -0.0002 -1.0
    outer loop
      vertex 3.102543 -6.892787 -50.813023
      vertex 27.21384 -16.050062 -50.901291
      vertex 21.871576 -22.848822 -50.879745
    endloop
  endfacet
  facet normal -0.0037 -0.0002 -1.0
    outer loop
      vertex 3.102543 -6.892787 -50.813023
      vertex 21.871576 -22.848822 -50.879745
      vertex 3.245858 -15.348305 -50.811661
    endloop
  endfacet
  facet normal -0.0037 -0.0002 -1.0
    outer loop
      vertex 3.245858 -15.348305 -50.811661
      vertex 21.871576 -22.848822 -50.879745
      vertex 14.893145 -27.954128 -50.852455
    endloop
  endfacet
  facet normal -0.0037 -0.0002 -1.0
    outer loop
      vertex 3.245858 -15.348305 -50.811661
      vertex 14.893145 -27.954128 -50.852455
      vertex 6.796106 -30.987341 -50.821438
    endloop
  endfacet
  facet normal -0.9998 -0.0169 0.0037
    outer loop
      vertex -3.402105 -15.28802 -129.740921
      vertex -3.331756 -19.639168 -130.646774
      vertex -3.295322 -21.516529 -129.416138
    endloop
  endfacet
  facet normal -0.9998 -0.0169 0.0037
    outer loop
      vertex -3.415921 -14.05742 -127.863228
      vertex -3.418209 -14.103924 -128.683655
      vertex -3.413152 -14.554356 -129.370941
    endloop
  endfacet
  facet normal -0.9998 -0.0169 0.0038
    outer loop
      vertex -3.295322 -21.516529 -129.416138
      vertex -3.331756 -19.639168 -130.646774
      vertex -3.301563 -21.274488 -129.986267
    endloop
  endfacet
  facet normal -0.9998 -0.0169 0.0037
    outer loop
      vertex -3.301563 -21.274488 -129.986267
      vertex -3.331756 -19.639168 -130.646774
      vertex -3.32128 -20.258467 -130.652298
    endloop
  endfacet
  facet normal -0.9998 -0.0169 0.0037
    outer loop
      vertex -3.301563 -21.274488 -129.986267
      vertex -3.32128 -20.258467 -130.652298
      vertex -3.310678 -20.832714 -130.420349
    endloop
  endfacet
  facet normal -0.9998 -0.0169 0.0037
    outer loop
      vertex -3.413152 -14.554356 -129.370941
      vertex -3.402105 -15.28802 -129.740921
      vertex -3.415921 -14.05742 -127.863228
    endloop
  endfacet
  facet normal -0.9998 -0.0169 0.0037
    outer loop
      vertex -3.415921 -14.05742 -127.863228
      vertex -3.402105 -15.28802 -129.740921
      vertex -3.295322 -21.516529 -129.416138
    endloop
  endfacet
  facet normal -0.9998 -0.0169 0.0037
    outer loop
      vertex -3.415921 -14.05742 -127.863228
      vertex -3.295322 -21.516529 -129.416138
      vertex -3.160146 -21.371298 -92.712646
    endloop
  endfacet
  facet normal -0.9998 -0.0169 0.0037
    outer loop
      vertex -3.160146 -21.371298 -92.712646
      vertex -3.295322 -21.516529 -129.416138
      vertex -3.039547 -28.830408 -94.265556
    endloop
  endfacet
  facet normal -0.9998 -0.0169 0.0037
    outer loop
      vertex -3.160146 -21.371298 -92.712646
      vertex -3.039547 -28.830408 -94.265556
      vertex -3.130526 -21.901865 -87.21209
    endloop
  endfacet
  facet normal -0.9998 -0.0169 0.0037
    outer loop
      vertex -3.130526 -21.901865 -87.21209
      vertex -3.039547 -28.830408 -94.265556
      vertex -3.001041 -29.520144 -87.114838
    endloop
  endfacet
  facet normal -0.9998 -0.0169 0.0037
    outer loop
      vertex -3.130526 -21.901865 -87.21209
      vertex -3.001041 -29.520144 -87.114838
      vertex -3.121337 -21.2304 -81.726875
    endloop
  endfacet
  facet normal -0.9998 -0.0169 0.0037
    outer loop
      vertex -3.121337 -21.2304 -81.726875
      vertex -3.001041 -29.520144 -87.114838
      vertex -2.989096 -28.647238 -79.98407
    endloop
  endfacet
  facet normal -0.9998 -0.0169 0.0037
    outer loop
      vertex -3.121337 -21.2304 -81.726875
      vertex -2.989096 -28.647238 -79.98407
      vertex -3.133013 -19.388687 -76.516655
    endloop
  endfacet
  facet normal -0.9998 -0.0169 0.0037
    outer loop
      vertex -3.133013 -19.388687 -76.516655
      vertex -2.989096 -28.647238 -79.98407
      vertex -3.004275 -26.253014 -73.210777
    endloop
  endfacet
  facet normal -0.9998 -0.0169 0.0037
    outer loop
      vertex -3.133013 -19.388687 -76.516655
      vertex -3.004275 -26.253014 -73.210777
      vertex -3.2465 -7.000394 -50.789215
    endloop
  endfacet
  facet normal -0.9998 -0.0169 0.0037
    outer loop
      vertex -3.2465 -7.000394 -50.789215
      vertex -3.004275 -26.253014 -73.210777
      vertex -3.103185 -15.455913 -50.787846
    endloop
  endfacet
  facet normal -0.0071 0.2037 -0.979
    outer loop
      vertex 3.017287 -19.531559 -130.670593
      vertex -3.331756 -19.639168 -130.646774
      vertex 2.946938 -15.180412 -129.764725
    endloop
  endfacet
  facet normal -0.0071 0.2037 -0.979
    outer loop
      vertex 2.946938 -15.180412 -129.764725
      vertex -3.331756 -19.639168 -130.646774
      vertex -3.402105 -15.28802 -129.740921
    endloop
  endfacet
  facet normal 0.9998 0.0169 -0.0037
    outer loop
      vertex 3.102543 -6.892787 -50.813023
      vertex 3.245858 -15.348305 -50.811661
      vertex 3.21603 -19.281078 -76.540466
    endloop
  endfacet
  facet normal 0.9998 0.0169 -0.0037
    outer loop
      vertex 3.21603 -19.281078 -76.540466
      vertex 3.245858 -15.348305 -50.811661
      vertex 3.344769 -26.145405 -73.234581
    endloop
  endfacet
  facet normal 0.9998 0.0169 -0.0037
    outer loop
      vertex 3.21603 -19.281078 -76.540466
      vertex 3.344769 -26.145405 -73.234581
      vertex 3.227706 -21.122791 -81.750694
    endloop
  endfacet
  facet normal 0.9998 0.0169 -0.0037
    outer loop
      vertex 3.227706 -21.122791 -81.750694
      vertex 3.344769 -26.145405 -73.234581
      vertex 3.359948 -28.539631 -80.007874
    endloop
  endfacet
  facet normal 0.9998 0.0169 -0.0037
    outer loop
      vertex 3.227706 -21.122791 -81.750694
      vertex 3.359948 -28.539631 -80.007874
      vertex 3.218517 -21.794256 -87.235901
    endloop
  endfacet
  facet normal 0.9998 0.0169 -0.0037
    outer loop
      vertex 3.218517 -21.794256 -87.235901
      vertex 3.359948 -28.539631 -80.007874
      vertex 3.348002 -29.412537 -87.138649
    endloop
  endfacet
  facet normal 0.9998 0.0169 -0.0037
    outer loop
      vertex 3.218517 -21.794256 -87.235901
      vertex 3.348002 -29.412537 -87.138649
      vertex 3.188898 -21.263691 -92.73645
    endloop
  endfacet
  facet normal 0.9998 0.0169 -0.0037
    outer loop
      vertex 3.188898 -21.263691 -92.73645
      vertex 3.348002 -29.412537 -87.138649
      vertex 3.309497 -28.722801 -94.289368
    endloop
  endfacet
  facet normal 0.9998 0.0169 -0.0037
    outer loop
      vertex 3.309497 -28.722801 -94.289368
      vertex 3.017287 -19.531559 -130.670593
      vertex 3.188898 -21.263691 -92.73645
    endloop
  endfacet
  facet normal 0.9998 0.0169 -0.0037
    outer loop
      vertex 3.188898 -21.263691 -92.73645
      vertex 3.017287 -19.531559 -130.670593
      vertex 2.946938 -15.180412 -129.764725
    endloop
  endfacet
  facet normal 0.9998 0.0169 -0.0037
    outer loop
      vertex 3.188898 -21.263691 -92.73645
      vertex 2.946938 -15.180412 -129.764725
      vertex 2.933123 -13.949812 -127.887024
    endloop
  endfacet
  facet normal 0.9998 0.0169 -0.0037
    outer loop
      vertex 2.933123 -13.949812 -127.887024
      vertex 2.946938 -15.180412 -129.764725
      vertex 2.935891 -14.446747 -129.394745
    endloop
  endfacet
  facet normal 0.9998 0.0169 -0.0038
    outer loop
      vertex 2.933123 -13.949812 -127.887024
      vertex 2.935891 -14.446747 -129.394745
      vertex 2.930834 -13.996316 -128.707474
    endloop
  endfacet
  facet normal 0.9998 0.0169 -0.0037
    outer loop
      vertex 3.038366 -20.725107 -130.444153
      vertex 3.027763 -20.15086 -130.676102
      vertex 3.047481 -21.16688 -130.010086
    endloop
  endfacet
  facet normal 0.9998 0.0169 -0.0037
    outer loop
      vertex 3.047481 -21.16688 -130.010086
      vertex 3.027763 -20.15086 -130.676102
      vertex 3.017287 -19.531559 -130.670593
    endloop
  endfacet
  facet normal 0.9998 0.0169 -0.0037
    outer loop
      vertex 3.047481 -21.16688 -130.010086
      vertex 3.017287 -19.531559 -130.670593
      vertex 3.053721 -21.40892 -129.439957
    endloop
  endfacet
  facet normal 0.9998 0.0169 -0.0037
    outer loop
      vertex 3.053721 -21.40892 -129.439957
      vertex 3.017287 -19.531559 -130.670593
      vertex 3.309497 -28.722801 -94.289368
    endloop
  endfacet
  facet normal 0.0169 -0.9008 0.4338
    outer loop
      vertex -3.004275 -26.253014 -73.210777
      vertex 3.344769 -26.145405 -73.234581
      vertex -3.103185 -15.455913 -50.787846
    endloop
  endfacet
  facet normal 0.0169 -0.9008 0.4338
    outer loop
      vertex -3.103185 -15.455913 -50.787846
      vertex 3.344769 -26.145405 -73.234581
      vertex 3.245858 -15.348305 -50.811661
    endloop
  endfacet
  facet normal 0.0165 -0.9952 -0.0961
    outer loop
      vertex -3.039547 -28.830408 -94.265556
      vertex 3.309497 -28.722801 -94.289368
      vertex 3.348002 -29.412537 -87.138649
    endloop
  endfacet
  facet normal 0.0165 -0.9952 -0.0961
    outer loop
      vertex -3.039547 -28.830408 -94.265556
      vertex 3.348002 -29.412537 -87.138649
      vertex -3.001041 -29.520144 -87.114838
    endloop
  endfacet
  facet normal 0.0173 -0.9924 0.1215
    outer loop
      vertex -3.001041 -29.520144 -87.114838
      vertex 3.348002 -29.412537 -87.138649
      vertex 3.359948 -28.539631 -80.007874
    endloop
  endfacet
  facet normal 0.0173 -0.9924 0.1215
    outer loop
      vertex -3.001041 -29.520144 -87.114838
      vertex 3.359948 -28.539631 -80.007874
      vertex -2.989096 -28.647238 -79.98407
    endloop
  endfacet
  facet normal 0.0172 -0.9427 0.3333
    outer loop
      vertex -2.989096 -28.647238 -79.98407
      vertex 3.359948 -28.539631 -80.007874
      vertex 3.344769 -26.145405 -73.234581
    endloop
  endfacet
  facet normal 0.0172 -0.9427 0.3333
    outer loop
      vertex -2.989096 -28.647238 -79.98407
      vertex 3.344769 -26.145405 -73.234581
      vertex -3.004275 -26.253014 -73.210777
    endloop
  endfacet
  facet normal 0.0158 -0.9789 -0.2038
    outer loop
      vertex 3.309497 -28.722801 -94.289368
      vertex -3.039547 -28.830408 -94.265556
      vertex 3.053721 -21.40892 -129.439957
    endloop
  endfacet
  facet normal 0.0158 -0.9789 -0.2038
    outer loop
      vertex 3.053721 -21.40892 -129.439957
      vertex -3.039547 -28.830408 -94.265556
      vertex -3.295322 -21.516529 -129.416138
    endloop
  endfacet
  facet normal -0.0039 0.0088 -1.0
    outer loop
      vertex -3.331756 -19.639168 -130.646774
      vertex 3.017287 -19.531559 -130.670593
      vertex 3.027763 -20.15086 -130.676102
    endloop
  endfacet
  facet normal -0.0039 0.0089 -1.0
    outer loop
      vertex -3.331756 -19.639168 -130.646774
      vertex 3.027763 -20.15086 -130.676102
      vertex -3.32128 -20.258467 -130.652298
    endloop
  endfacet
  facet normal 0.0029 -0.3745 -0.9272
    outer loop
      vertex -3.32128 -20.258467 -130.652298
      vertex 3.027763 -20.15086 -130.676102
      vertex 3.038366 -20.725107 -130.444153
    endloop
  endfacet
  facet normal 0.0029 -0.3745 -0.9272
    outer loop
      vertex -3.32128 -20.258467 -130.652298
      vertex 3.038366 -20.725107 -130.444153
      vertex -3.310678 -20.832714 -130.420349
    endloop
  endfacet
  facet normal 0.0092 -0.7007 -0.7134
    outer loop
      vertex -3.310678 -20.832714 -130.420349
      vertex 3.038366 -20.725107 -130.444153
      vertex 3.047481 -21.16688 -130.010086
    endloop
  endfacet
  facet normal 0.0092 -0.7007 -0.7134
    outer loop
      vertex -3.310678 -20.832714 -130.420349
      vertex 3.047481 -21.16688 -130.010086
      vertex -3.301563 -21.274488 -129.986267
    endloop
  endfacet
  facet normal 0.0141 -0.9203 -0.3909
    outer loop
      vertex -3.301563 -21.274488 -129.986267
      vertex 3.047481 -21.16688 -130.010086
      vertex 3.053721 -21.40892 -129.439957
    endloop
  endfacet
  facet normal 0.0141 -0.9203 -0.3909
    outer loop
      vertex -3.301563 -21.274488 -129.986267
      vertex 3.053721 -21.40892 -129.439957
      vertex -3.295322 -21.516529 -129.416138
    endloop
  endfacet
  facet normal -0.9964 -0.0851 0.0038
    outer loop
      vertex -31.375427 -4.859617 0.116036
      vertex -31.744371 -0.541958 0.116446
      vertex -31.934675 -0.553393 -50.683197
    endloop
  endfacet
  facet normal -0.9987 0.0513 0.0037
    outer loop
      vertex -31.934675 -0.553393 -50.683197
      vertex -31.744371 -0.541958 0.116446
      vertex -31.712263 3.774288 -50.685005
    endloop
  endfacet
  facet normal -0.9987 0.0513 0.0037
    outer loop
      vertex -31.744371 -0.541958 0.116446
      vertex -31.521961 3.785723 0.114639
      vertex -31.712263 3.774288 -50.685005
    endloop
  endfacet
  facet normal -0.9673 0.2534 0.0036
    outer loop
      vertex -31.712263 3.774288 -50.685005
      vertex -31.521961 3.785723 0.114639
      vertex -29.330591 12.150003 0.104547
    endloop
  endfacet
  facet normal -0.9673 0.2534 0.0036
    outer loop
      vertex -31.712263 3.774288 -50.685005
      vertex -29.330591 12.150003 0.104547
      vertex -29.520895 12.138568 -50.695095
    endloop
  endfacet
  facet normal -0.8631 0.505 0.0031
    outer loop
      vertex -29.520895 12.138568 -50.695095
      vertex -29.330591 12.150003 0.104547
      vertex -24.963842 19.612883 0.086508
    endloop
  endfacet
  facet normal -0.8631 0.505 0.0031
    outer loop
      vertex -29.520895 12.138568 -50.695095
      vertex -24.963842 19.612883 0.086508
      vertex -25.154148 19.601448 -50.713135
    endloop
  endfacet
  facet normal -0.6948 0.7192 0.0024
    outer loop
      vertex -25.154148 19.601448 -50.713135
      vertex -24.963842 19.612883 0.086508
      vertex -18.745577 25.620874 0.061861
    endloop
  endfacet
  facet normal -0.6948 0.7192 0.0024
    outer loop
      vertex -25.154148 19.601448 -50.713135
      vertex -18.745577 25.620874 0.061861
      vertex -18.935881 25.609438 -50.737778
    endloop
  endfacet
  facet normal -0.475 0.88 0.0016
    outer loop
      vertex -18.935881 25.609438 -50.737778
      vertex -18.745577 25.620874 0.061861
      vertex -11.136975 29.72839 0.032433
    endloop
  endfacet
  facet normal -0.475 0.88 0.0016
    outer loop
      vertex -18.935881 25.609438 -50.737778
      vertex -11.136975 29.72839 0.032433
      vertex -11.32728 29.716955 -50.767208
    endloop
  endfacet
  facet normal -0.22 0.9755 0.0006
    outer loop
      vertex -11.32728 29.716955 -50.767208
      vertex -11.136975 29.72839 0.032433
      vertex -2.702332 31.630798 0.000407
    endloop
  endfacet
  facet normal -0.22 0.9755 0.0006
    outer loop
      vertex -11.32728 29.716955 -50.767208
      vertex -2.702332 31.630798 0.000407
      vertex -2.892637 31.619362 -50.799236
    endloop
  endfacet
  facet normal 0.0513 0.9987 -0.0004
    outer loop
      vertex -2.892637 31.619362 -50.799236
      vertex -2.702332 31.630798 0.000407
      vertex 5.932794 31.187004 -0.031841
    endloop
  endfacet
  facet normal 0.0513 0.9987 -0.0004
    outer loop
      vertex -2.892637 31.619362 -50.799236
      vertex 5.932794 31.187004 -0.031841
      vertex 5.742488 31.17557 -50.831486
    endloop
  endfacet
  facet normal 0.3189 0.9478 -0.0014
    outer loop
      vertex 5.742488 31.17557 -50.831486
      vertex 5.932794 31.187004 -0.031841
      vertex 14.127974 28.429922 -0.061922
    endloop
  endfacet
  facet normal 0.3189 0.9478 -0.0014
    outer loop
      vertex 5.742488 31.17557 -50.831486
      vertex 14.127974 28.429922 -0.061922
      vertex 13.937669 28.418488 -50.861565
    endloop
  endfacet
  facet normal 0.5627 0.8266 -0.0023
    outer loop
      vertex 13.937669 28.418488 -50.861565
      vertex 14.127974 28.429922 -0.061922
      vertex 21.275408 23.564032 -0.087602
    endloop
  endfacet
  facet normal 0.5627 0.8266 -0.0023
    outer loop
      vertex 13.937669 28.418488 -50.861565
      vertex 21.275408 23.564032 -0.087602
      vertex 21.085104 23.552597 -50.887245
    endloop
  endfacet
  facet normal 0.7649 0.6441 -0.003
    outer loop
      vertex 21.085104 23.552597 -50.887245
      vertex 21.275408 23.564032 -0.087602
      vertex 26.845009 16.950214 -0.106978
    endloop
  endfacet
  facet normal 0.7649 0.6441 -0.003
    outer loop
      vertex 21.085104 23.552597 -50.887245
      vertex 26.845009 16.950214 -0.106978
      vertex 26.654703 16.93878 -50.90662
    endloop
  endfacet
  facet normal 0.9103 0.4139 -0.0035
    outer loop
      vertex 26.654703 16.93878 -50.90662
      vertex 26.845009 16.950214 -0.106978
      vertex 30.423697 9.078986 -0.118612
    endloop
  endfacet
  facet normal 0.9103 0.4139 -0.0035
    outer loop
      vertex 26.654703 16.93878 -50.90662
      vertex 30.423697 9.078986 -0.118612
      vertex 30.233393 9.067552 -50.918255
    endloop
  endfacet
  facet normal 0.9882 0.1529 -0.0037
    outer loop
      vertex 30.233393 9.067552 -50.918255
      vertex 30.423697 9.078986 -0.118612
      vertex 31.746063 0.534121 -0.121643
    endloop
  endfacet
  facet normal 0.9882 0.1529 -0.0037
    outer loop
      vertex 30.233393 9.067552 -50.918255
      vertex 31.746063 0.534121 -0.121643
      vertex 31.555761 0.522686 -50.921284
    endloop
  endfacet
  facet normal 0.9928 -0.1194 -0.0037
    outer loop
      vertex 31.555761 0.522686 -50.921284
      vertex 31.746063 0.534121 -0.121643
      vertex 30.714033 -8.050649 -0.115844
    endloop
  endfacet
  facet normal 0.9928 -0.1194 -0.0037
    outer loop
      vertex 31.555761 0.522686 -50.921284
      vertex 30.714033 -8.050649 -0.115844
      vertex 30.523729 -8.062083 -50.915485
    endloop
  endfacet
  facet normal 0.9238 -0.3828 -0.0034
    outer loop
      vertex 30.523729 -8.062083 -50.915485
      vertex 30.714033 -8.050649 -0.115844
      vertex 27.404146 -16.038628 -0.101647
    endloop
  endfacet
  facet normal 0.9238 -0.3828 -0.0034
    outer loop
      vertex 30.523729 -8.062083 -50.915485
      vertex 27.404146 -16.038628 -0.101647
      vertex 27.21384 -16.050062 -50.901291
    endloop
  endfacet
  facet normal 0.7863 -0.6179 -0.0028
    outer loop
      vertex 27.21384 -16.050062 -50.901291
      vertex 27.404146 -16.038628 -0.101647
      vertex 22.06188 -22.837387 -0.080103
    endloop
  endfacet
  facet normal 0.7863 -0.6179 -0.0028
    outer loop
      vertex 27.21384 -16.050062 -50.901291
      vertex 22.06188 -22.837387 -0.080103
      vertex 21.871576 -22.848822 -50.879745
    endloop
  endfacet
  facet normal 0.5904 -0.8071 -0.002
    outer loop
      vertex 21.871576 -22.848822 -50.879745
      vertex 22.06188 -22.837387 -0.080103
      vertex 15.083449 -27.942694 -0.052811
    endloop
  endfacet
  facet normal 0.5904 -0.8071 -0.002
    outer loop
      vertex 21.871576 -22.848822 -50.879745
      vertex 15.083449 -27.942694 -0.052811
      vertex 14.893145 -27.954128 -50.852455
    endloop
  endfacet
  facet normal 0.3508 -0.9365 -0.0011
    outer loop
      vertex 14.893145 -27.954128 -50.852455
      vertex 15.083449 -27.942694 -0.052811
      vertex 6.986411 -30.975906 -0.021796
    endloop
  endfacet
  facet normal 0.3508 -0.9365 -0.0011
    outer loop
      vertex 14.893145 -27.954128 -50.852455
      vertex 6.986411 -30.975906 -0.021796
      vertex 6.796106 -30.987341 -50.821438
    endloop
  endfacet
  facet normal 0.0851 -0.9964 -0.0001
    outer loop
      vertex 6.796106 -30.987341 -50.821438
      vertex 6.986411 -30.975906 -0.021796
      vertex -1.628715 -31.71207 0.010644
    endloop
  endfacet
  facet normal 0.0851 -0.9964 -0.0001
    outer loop
      vertex 6.796106 -30.987341 -50.821438
      vertex -1.628715 -31.71207 0.010644
      vertex -1.81902 -31.723507 -50.788998
    endloop
  endfacet
  facet normal -0.1868 -0.9824 0.0009
    outer loop
      vertex -1.81902 -31.723507 -50.788998
      vertex -1.628715 -31.71207 0.010644
      vertex -10.122984 -30.096584 0.042102
    endloop
  endfacet
  facet normal -0.1868 -0.9824 0.0009
    outer loop
      vertex -1.81902 -31.723507 -50.788998
      vertex -10.122984 -30.096584 0.042102
      vertex -10.31329 -30.108019 -50.757542
    endloop
  endfacet
  facet normal -0.4449 -0.8956 0.0019
    outer loop
      vertex -10.31329 -30.108019 -50.757542
      vertex -10.122984 -30.096584 0.042102
      vertex -17.866413 -26.249264 0.070244
    endloop
  endfacet
  facet normal -0.4449 -0.8956 0.0019
    outer loop
      vertex -10.31329 -30.108019 -50.757542
      vertex -17.866413 -26.249264 0.070244
      vertex -18.056721 -26.2607 -50.729397
    endloop
  endfacet
  facet normal -0.6701 -0.7423 0.0027
    outer loop
      vertex -18.056721 -26.2607 -50.729397
      vertex -17.866413 -26.249264 0.070244
      vertex -24.284714 -20.455446 0.092984
    endloop
  endfacet
  facet normal -0.6701 -0.7423 0.0027
    outer loop
      vertex -18.056721 -26.2607 -50.729397
      vertex -24.284714 -20.455446 0.092984
      vertex -24.475018 -20.466881 -50.706657
    endloop
  endfacet
  facet normal -0.8455 -0.534 0.0033
    outer loop
      vertex -24.475018 -20.466881 -50.706657
      vertex -24.284714 -20.455446 0.092984
      vertex -28.901859 -13.144833 0.108635
    endloop
  endfacet
  facet normal -0.8455 -0.534 0.0033
    outer loop
      vertex -24.475018 -20.466881 -50.706657
      vertex -28.901859 -13.144833 0.108635
      vertex -29.092167 -13.156268 -50.69101
    endloop
  endfacet
  facet normal -0.9582 -0.2861 0.0037
    outer loop
      vertex -29.092167 -13.156268 -50.69101
      vertex -28.901859 -13.144833 0.108635
      vertex -31.375427 -4.859617 0.116036
    endloop
  endfacet
  facet normal -0.9582 -0.2861 0.0037
    outer loop
      vertex -29.092167 -13.156268 -50.69101
      vertex -31.375427 -4.859617 0.116036
      vertex -31.565733 -4.871052 -50.683605
    endloop
  endfacet
  facet normal -0.9964 -0.0851 0.0038
    outer loop
      vertex -31.565733 -4.871052 -50.683605
      vertex -31.375427 -4.859617 0.116036
      vertex -31.934675 -0.553393 -50.683197
    endloop
  endfacet
  facet normal 0.0037 0.0002 1.0
    outer loop
      vertex -31.521961 3.785723 0.114639
      vertex 31.746063 0.534121 -0.121643
      vertex 30.423697 9.078986 -0.118612
    endloop
  endfacet
  facet normal 0.0037 0.0002 1.0
    outer loop
      vertex -31.521961 3.785723 0.114639
      vertex 30.423697 9.078986 -0.118612
      vertex -29.330591 12.150003 0.104547
    endloop
  endfacet
  facet normal 0.0037 0.0002 1.0
    outer loop
      vertex -29.330591 12.150003 0.104547
      vertex 30.423697 9.078986 -0.118612
      vertex 26.845009 16.950214 -0.106978
    endloop
  endfacet
  facet normal 0.0037 0.0002 1.0
    outer loop
      vertex -29.330591 12.150003 0.104547
      vertex 26.845009 16.950214 -0.106978
      vertex -24.963842 19.612883 0.086508
    endloop
  endfacet
  facet normal 0.0037 0.0002 1.0
    outer loop
      vertex -24.963842 19.612883 0.086508
      vertex 26.845009 16.950214 -0.106978
      vertex 21.275408 23.564032 -0.087602
    endloop
  endfacet
  facet normal 0.0037 0.0002 1.0
    outer loop
      vertex -24.963842 19.612883 0.086508
      vertex 21.275408 23.564032 -0.087602
      vertex -18.745577 25.620874 0.061861
    endloop
  endfacet
  facet normal 0.0037 0.0002 1.0
    outer loop
      vertex -18.745577 25.620874 0.061861
      vertex 21.275408 23.564032 -0.087602
      vertex 14.127974 28.429922 -0.061922
    endloop
  endfacet
  facet normal 0.0037 0.0002 1.0
    outer loop
      vertex -18.745577 25.620874 0.061861
      vertex 14.127974 28.429922 -0.061922
      vertex -11.136975 29.72839 0.032433
    endloop
  endfacet
  facet normal 0.0037 0.0002 1.0
    outer loop
      vertex -11.136975 29.72839 0.032433
      vertex 14.127974 28.429922 -0.061922
      vertex 5.932794 31.187004 -0.031841
    endloop
  endfacet
  facet normal 0.0037 0.0002 1.0
    outer loop
      vertex -11.136975 29.72839 0.032433
      vertex 5.932794 31.187004 -0.031841
      vertex -2.702332 31.630798 0.000407
    endloop
  endfacet
  facet normal 0.0037 0.0002 1.0
    outer loop
      vertex -17.866413 -26.249264 0.070244
      vertex -10.122984 -30.096584 0.042102
      vertex -1.628715 -31.71207 0.010644
    endloop
  endfacet
  facet normal 0.0037 0.0002 1.0
    outer loop
      vertex 15.083449 -27.942694 -0.052811
      vertex 22.06188 -22.837387 -0.080103
      vertex 27.404146 -16.038628 -0.101647
    endloop
  endfacet
  facet normal 0.0037 0.0002 1.0
    outer loop
      vertex -31.521961 3.785723 0.114639
      vertex -31.744371 -0.541958 0.116446
      vertex 31.746063 0.534121 -0.121643
    endloop
  endfacet
  facet normal 0.0037 0.0002 1.0
    outer loop
      vertex 31.746063 0.534121 -0.121643
      vertex -31.744371 -0.541958 0.116446
      vertex -31.375427 -4.859617 0.116036
    endloop
  endfacet
  facet normal 0.0037 0.0002 1.0
    outer loop
      vertex 31.746063 0.534121 -0.121643
      vertex -31.375427 -4.859617 0.116036
      vertex -28.901859 -13.144833 0.108635
    endloop
  endfacet
  facet normal 0.0037 0.0002 1.0
    outer loop
      vertex 15.083449 -27.942694 -0.052811
      vertex 27.404146 -16.038628 -0.101647
      vertex 6.986411 -30.975906 -0.021796
    endloop
  endfacet
  facet normal 0.0037 0.0002 1.0
    outer loop
      vertex 6.986411 -30.975906 -0.021796
      vertex 27.404146 -16.038628 -0.101647
      vertex 30.714033 -8.050649 -0.115844
    endloop
  endfacet
  facet normal 0.0037 0.0002 1.0
    outer loop
      vertex 6.986411 -30.975906 -0.021796
      vertex 30.714033 -8.050649 -0.115844
      vertex -1.628715 -31.71207 0.010644
    endloop
  endfacet
  facet normal 0.0037 0.0002 1.0
    outer loop
      vertex -1.628715 -31.71207 0.010644
      vertex 30.714033 -8.050649 -0.115844
      vertex 31.746063 0.534121 -0.121643
    endloop
  endfacet
  facet normal 0.0037 0.0002 1.0
    outer loop
      vertex -1.628715 -31.71207 0.010644
      vertex 31.746063 0.534121 -0.121643
      vertex -17.866413 -26.249264 0.070244
    endloop
  endfacet
  facet normal 0.0037 0.0002 1.0
    outer loop
      vertex -17.866413 -26.249264 0.070244
      vertex 31.746063 0.534121 -0.121643
      vertex -28.901859 -13.144833 0.108635
    endloop
  endfacet
  facet normal 0.0037 0.0002 1.0
    outer loop
      vertex -17.866413 -26.249264 0.070244
      vertex -28.901859 -13.144833 0.108635
      vertex -24.284714 -20.455446 0.092984
    endloop
  endfacet
  facet normal -0.0136 0.901 0.4336
    outer loop
      vertex 2.457345 26.21221 -73.243042
      vertex -3.891699 26.104601 -73.219231
      vertex 2.724269 15.425205 -50.816631
    endloop
  endfacet
  facet normal -0.0136 0.901 0.4336
    outer loop
      vertex 2.724269 15.425205 -50.816631
      vertex -3.891699 26.104601 -73.219231
      vertex -3.624774 15.317597 -50.79282
    endloop
  endfacet
  facet normal 0.9998 0.0169 -0.0037
    outer loop
      vertex 2.354501 19.572508 -130.67691
      vertex 2.467106 21.321716 -92.74334
      vertex 2.459529 13.992013 -127.891541
    endloop
  endfacet
  facet normal 0.9998 0.0169 -0.0037
    outer loop
      vertex 2.354501 19.572508 -130.67691
      vertex 2.459529 13.992013 -127.891541
      vertex 2.431643 15.221768 -129.769638
    endloop
  endfacet
  facet normal 0.9998 0.0169 -0.0037
    outer loop
      vertex 2.431643 15.221768 -129.769638
      vertex 2.459529 13.992013 -127.891541
      vertex 2.45567 14.038147 -128.712006
    endloop
  endfacet
  facet normal 0.9998 0.0169 -0.0038
    outer loop
      vertex 2.431643 15.221768 -129.769638
      vertex 2.45567 14.038147 -128.712006
      vertex 2.445463 14.488269 -129.399414
    endloop
  endfacet
  facet normal 0.9998 0.0169 -0.0037
    outer loop
      vertex 2.724269 15.425205 -50.816631
      vertex 2.867584 6.969687 -50.815266
      vertex 2.457345 26.21221 -73.243042
    endloop
  endfacet
  facet normal 0.9998 0.0169 -0.0037
    outer loop
      vertex 2.457345 26.21221 -73.243042
      vertex 2.867584 6.969687 -50.815266
      vertex 2.561322 19.346395 -76.546707
    endloop
  endfacet
  facet normal 0.9998 0.0169 -0.0037
    outer loop
      vertex 2.457345 26.21221 -73.243042
      vertex 2.561322 19.346395 -76.546707
      vertex 2.391414 28.603386 -80.017113
    endloop
  endfacet
  facet normal 0.9998 0.0169 -0.0037
    outer loop
      vertex 2.391414 28.603386 -80.017113
      vertex 2.561322 19.346395 -76.546707
      vertex 2.510607 21.185762 -81.757523
    endloop
  endfacet
  facet normal 0.9998 0.0169 -0.0037
    outer loop
      vertex 2.391414 28.603386 -80.017113
      vertex 2.510607 21.185762 -81.757523
      vertex 2.349933 29.47308 -87.14817
    endloop
  endfacet
  facet normal 0.9998 0.0169 -0.0037
    outer loop
      vertex 2.349933 29.47308 -87.14817
      vertex 2.510607 21.185762 -81.757523
      vertex 2.478698 21.854759 -87.24295
    endloop
  endfacet
  facet normal 0.9998 0.0169 -0.0037
    outer loop
      vertex 2.349933 29.47308 -87.14817
      vertex 2.478698 21.854759 -87.24295
      vertex 2.334863 28.780125 -94.29866
    endloop
  endfacet
  facet normal 0.9998 0.0169 -0.0037
    outer loop
      vertex 2.334863 28.780125 -94.29866
      vertex 2.478698 21.854759 -87.24295
      vertex 2.467106 21.321716 -92.74334
    endloop
  endfacet
  facet normal 0.9998 0.0169 -0.0037
    outer loop
      vertex 2.334863 28.780125 -94.29866
      vertex 2.467106 21.321716 -92.74334
      vertex 2.327286 21.450422 -129.446884
    endloop
  endfacet
  facet normal 0.9998 0.0169 -0.0037
    outer loop
      vertex 2.327286 21.450422 -129.446884
      vertex 2.467106 21.321716 -92.74334
      vertex 2.354501 19.572508 -130.67691
    endloop
  endfacet
  facet normal 0.9998 0.0169 -0.0037
    outer loop
      vertex 2.327286 21.450422 -129.446884
      vertex 2.354501 19.572508 -130.67691
      vertex 2.329255 21.208124 -130.016922
    endloop
  endfacet
  facet normal 0.9998 0.0169 -0.0037
    outer loop
      vertex 2.329255 21.208124 -130.016922
      vertex 2.354501 19.572508 -130.67691
      vertex 2.343984 20.191803 -130.682617
    endloop
  endfacet
  facet normal 0.9998 0.0169 -0.0038
    outer loop
      vertex 2.329255 21.208124 -130.016922
      vertex 2.343984 20.191803 -130.682617
      vertex 2.335118 20.766155 -130.450867
    endloop
  endfacet
  facet normal 0.0136 -0.901 -0.4336
    outer loop
      vertex 2.867584 6.969687 -50.815266
      vertex -3.48146 6.862079 -50.791458
      vertex 2.561322 19.346395 -76.546707
    endloop
  endfacet
  facet normal 0.0136 -0.901 -0.4336
    outer loop
      vertex 2.561322 19.346395 -76.546707
      vertex -3.48146 6.862079 -50.791458
      vertex -3.787721 19.238789 -76.522896
    endloop
  endfacet
  facet normal 0.0172 -0.9952 0.0964
    outer loop
      vertex -3.881938 21.214108 -92.719528
      vertex 2.467106 21.321716 -92.74334
      vertex 2.478698 21.854759 -87.24295
    endloop
  endfacet
  facet normal 0.0172 -0.9952 0.0964
    outer loop
      vertex -3.881938 21.214108 -92.719528
      vertex 2.478698 21.854759 -87.24295
      vertex -3.870346 21.74715 -87.219139
    endloop
  endfacet
  facet normal 0.0164 -0.9925 -0.1211
    outer loop
      vertex -3.870346 21.74715 -87.219139
      vertex 2.478698 21.854759 -87.24295
      vertex 2.510607 21.185762 -81.757523
    endloop
  endfacet
  facet normal 0.0164 -0.9925 -0.1211
    outer loop
      vertex -3.870346 21.74715 -87.219139
      vertex 2.510607 21.185762 -81.757523
      vertex -3.838437 21.078154 -81.733719
    endloop
  endfacet
  facet normal 0.0147 -0.9428 -0.333
    outer loop
      vertex -3.838437 21.078154 -81.733719
      vertex 2.510607 21.185762 -81.757523
      vertex 2.561322 19.346395 -76.546707
    endloop
  endfacet
  facet normal 0.0147 -0.9428 -0.333
    outer loop
      vertex -3.838437 21.078154 -81.733719
      vertex 2.561322 19.346395 -76.546707
      vertex -3.787721 19.238789 -76.522896
    endloop
  endfacet
  facet normal 0.0174 -0.9788 0.2041
    outer loop
      vertex 2.467106 21.321716 -92.74334
      vertex -3.881938 21.214108 -92.719528
      vertex 2.459529 13.992013 -127.891541
    endloop
  endfacet
  facet normal 0.0174 -0.9788 0.2041
    outer loop
      vertex 2.459529 13.992013 -127.891541
      vertex -3.881938 21.214108 -92.719528
      vertex -3.889515 13.884405 -127.867744
    endloop
  endfacet
  facet normal 0.0043 -0.4505 -0.8928
    outer loop
      vertex -3.917401 15.114161 -129.745819
      vertex 2.431643 15.221768 -129.769638
      vertex 2.445463 14.488269 -129.399414
    endloop
  endfacet
  facet normal 0.0043 -0.4505 -0.8928
    outer loop
      vertex -3.917401 15.114161 -129.745819
      vertex 2.445463 14.488269 -129.399414
      vertex -3.90358 14.380661 -129.37561
    endloop
  endfacet
  facet normal 0.0121 -0.8365 -0.5479
    outer loop
      vertex -3.90358 14.380661 -129.37561
      vertex 2.445463 14.488269 -129.399414
      vertex 2.45567 14.038147 -128.712006
    endloop
  endfacet
  facet normal 0.0121 -0.8365 -0.5479
    outer loop
      vertex -3.90358 14.380661 -129.37561
      vertex 2.45567 14.038147 -128.712006
      vertex -3.893373 13.930539 -128.688187
    endloop
  endfacet
  facet normal 0.0167 -0.9983 -0.0562
    outer loop
      vertex -3.893373 13.930539 -128.688187
      vertex 2.45567 14.038147 -128.712006
      vertex 2.459529 13.992013 -127.891541
    endloop
  endfacet
  facet normal 0.0167 -0.9983 -0.0562
    outer loop
      vertex -3.893373 13.930539 -128.688187
      vertex 2.459529 13.992013 -127.891541
      vertex -3.889515 13.884405 -127.867744
    endloop
  endfacet
  facet normal -0.0002 -0.2041 -0.9789
    outer loop
      vertex 2.431643 15.221768 -129.769638
      vertex -3.917401 15.114161 -129.745819
      vertex 2.354501 19.572508 -130.67691
    endloop
  endfacet
  facet normal -0.0002 -0.2041 -0.9789
    outer loop
      vertex 2.354501 19.572508 -130.67691
      vertex -3.917401 15.114161 -129.745819
      vertex -3.994542 19.464899 -130.653107
    endloop
  endfacet
  facet normal -0.0171 0.9202 -0.3912
    outer loop
      vertex -4.021758 21.342815 -129.423065
      vertex 2.327286 21.450422 -129.446884
      vertex 2.329255 21.208124 -130.016922
    endloop
  endfacet
  facet normal -0.0171 0.9202 -0.3912
    outer loop
      vertex -4.021758 21.342815 -129.423065
      vertex 2.329255 21.208124 -130.016922
      vertex -4.019788 21.100515 -129.993118
    endloop
  endfacet
  facet normal -0.0145 0.7004 -0.7136
    outer loop
      vertex -4.019788 21.100515 -129.993118
      vertex 2.329255 21.208124 -130.016922
      vertex 2.335118 20.766155 -130.450867
    endloop
  endfacet
  facet normal -0.0145 0.7004 -0.7136
    outer loop
      vertex -4.019788 21.100515 -129.993118
      vertex 2.335118 20.766155 -130.450867
      vertex -4.013926 20.658546 -130.427048
    endloop
  endfacet
  facet normal -0.0098 0.374 -0.9274
    outer loop
      vertex -4.013926 20.658546 -130.427048
      vertex 2.335118 20.766155 -130.450867
      vertex 2.343984 20.191803 -130.682617
    endloop
  endfacet
  facet normal -0.0098 0.374 -0.9274
    outer loop
      vertex -4.013926 20.658546 -130.427048
      vertex 2.343984 20.191803 -130.682617
      vertex -4.00506 20.084194 -130.658798
    endloop
  endfacet
  facet normal -0.0036 -0.0093 -1.0
    outer loop
      vertex -4.00506 20.084194 -130.658798
      vertex 2.343984 20.191803 -130.682617
      vertex 2.354501 19.572508 -130.67691
    endloop
  endfacet
  facet normal -0.0036 -0.0093 -1.0
    outer loop
      vertex -4.00506 20.084194 -130.658798
      vertex 2.354501 19.572508 -130.67691
      vertex -3.994542 19.464899 -130.653107
    endloop
  endfacet
  facet normal -0.0174 0.9788 -0.2041
    outer loop
      vertex 2.327286 21.450422 -129.446884
      vertex -4.021758 21.342815 -129.423065
      vertex 2.334863 28.780125 -94.29866
    endloop
  endfacet
  facet normal -0.0174 0.9788 -0.2041
    outer loop
      vertex 2.334863 28.780125 -94.29866
      vertex -4.021758 21.342815 -129.423065
      vertex -4.014181 28.672516 -94.274857
    endloop
  endfacet
  facet normal -0.0147 0.9428 0.333
    outer loop
      vertex -3.891699 26.104601 -73.219231
      vertex 2.457345 26.21221 -73.243042
      vertex 2.391414 28.603386 -80.017113
    endloop
  endfacet
  facet normal -0.0147 0.9428 0.333
    outer loop
      vertex -3.891699 26.104601 -73.219231
      vertex 2.391414 28.603386 -80.017113
      vertex -3.957629 28.495777 -79.993301
    endloop
  endfacet
  facet normal -0.0164 0.9925 0.1211
    outer loop
      vertex -3.957629 28.495777 -79.993301
      vertex 2.391414 28.603386 -80.017113
      vertex 2.349933 29.47308 -87.14817
    endloop
  endfacet
  facet normal -0.0164 0.9925 0.1211
    outer loop
      vertex -3.957629 28.495777 -79.993301
      vertex 2.349933 29.47308 -87.14817
      vertex -3.999111 29.365473 -87.124352
    endloop
  endfacet
  facet normal -0.0172 0.9952 -0.0964
    outer loop
      vertex -3.999111 29.365473 -87.124352
      vertex 2.349933 29.47308 -87.14817
      vertex 2.334863 28.780125 -94.29866
    endloop
  endfacet
  facet normal -0.0172 0.9952 -0.0964
    outer loop
      vertex -3.999111 29.365473 -87.124352
      vertex 2.334863 28.780125 -94.29866
      vertex -4.014181 28.672516 -94.274857
    endloop
  endfacet
  facet normal -0.9998 -0.0169 0.0037
    outer loop
      vertex -3.881938 21.214108 -92.719528
      vertex -3.994542 19.464899 -130.653107
      vertex -3.889515 13.884405 -127.867744
    endloop
  endfacet
  facet normal -0.9998 -0.0169 0.0037
    outer loop
      vertex -3.889515 13.884405 -127.867744
      vertex -3.994542 19.464899 -130.653107
      vertex -3.917401 15.114161 -129.745819
    endloop
  endfacet
  facet normal -0.9998 -0.0169 0.0037
    outer loop
      vertex -3.889515 13.884405 -127.867744
      vertex -3.917401 15.114161 -129.745819
      vertex -3.893373 13.930539 -128.688187
    endloop
  endfacet
  facet normal -0.9998 -0.0169 0.0037
    outer loop
      vertex -3.893373 13.930539 -128.688187
      vertex -3.917401 15.114161 -129.745819
      vertex -3.90358 14.380661 -129.37561
    endloop
  endfacet
  facet normal -0.9998 -0.0169 0.0037
    outer loop
      vertex -3.48146 6.862079 -50.791458
      vertex -3.624774 15.317597 -50.79282
      vertex -3.787721 19.238789 -76.522896
    endloop
  endfacet
  facet normal -0.9998 -0.0169 0.0037
    outer loop
      vertex -3.787721 19.238789 -76.522896
      vertex -3.624774 15.317597 -50.79282
      vertex -3.891699 26.104601 -73.219231
    endloop
  endfacet
  facet normal -0.9998 -0.0169 0.0037
    outer loop
      vertex -3.787721 19.238789 -76.522896
      vertex -3.891699 26.104601 -73.219231
      vertex -3.838437 21.078154 -81.733719
    endloop
  endfacet
  facet normal -0.9998 -0.0169 0.0037
    outer loop
      vertex -3.838437 21.078154 -81.733719
      vertex -3.891699 26.104601 -73.219231
      vertex -3.957629 28.495777 -79.993301
    endloop
  endfacet
  facet normal -0.9998 -0.0169 0.0037
    outer loop
      vertex -3.838437 21.078154 -81.733719
      vertex -3.957629 28.495777 -79.993301
      vertex -3.870346 21.74715 -87.219139
    endloop
  endfacet
  facet normal -0.9998 -0.0169 0.0037
    outer loop
      vertex -3.870346 21.74715 -87.219139
      vertex -3.957629 28.495777 -79.993301
      vertex -3.999111 29.365473 -87.124352
    endloop
  endfacet
  facet normal -0.9998 -0.0169 0.0037
    outer loop
      vertex -3.870346 21.74715 -87.219139
      vertex -3.999111 29.365473 -87.124352
      vertex -3.881938 21.214108 -92.719528
    endloop
  endfacet
  facet normal -0.9998 -0.0169 0.0037
    outer loop
      vertex -3.881938 21.214108 -92.719528
      vertex -3.999111 29.365473 -87.124352
      vertex -4.014181 28.672516 -94.274857
    endloop
  endfacet
  facet normal -0.9998 -0.0169 0.0037
    outer loop
      vertex -3.881938 21.214108 -92.719528
      vertex -4.014181 28.672516 -94.274857
      vertex -3.994542 19.464899 -130.653107
    endloop
  endfacet
  facet normal -0.9998 -0.017 0.0038
    outer loop
      vertex -4.013926 20.658546 -130.427048
      vertex -4.00506 20.084194 -130.658798
      vertex -4.019788 21.100515 -129.993118
    endloop
  endfacet
  facet normal -0.9998 -0.0169 0.0038
    outer loop
      vertex -4.019788 21.100515 -129.993118
      vertex -4.00506 20.084194 -130.658798
      vertex -3.994542 19.464899 -130.653107
    endloop
  endfacet
  facet normal -0.9998 -0.0169 0.0037
    outer loop
      vertex -4.019788 21.100515 -129.993118
      vertex -3.994542 19.464899 -130.653107
      vertex -4.021758 21.342815 -129.423065
    endloop
  endfacet
  facet normal -0.9998 -0.0169 0.0037
    outer loop
      vertex -4.021758 21.342815 -129.423065
      vertex -3.994542 19.464899 -130.653107
      vertex -4.014181 28.672516 -94.274857
    endloop
  endfacet
endsolid
